<svg xmlns="http://www.w3.org/2000/svg" viewBox="0 0 192 192"><path d="M141.537 88.988a66.667 66.667 0 0 0-2.518-1.143c-1.482-27.307-16.403-42.94-41.457-43.1h-.34c-14.986 0-27.449 6.396-35.12 18.036l13.779 9.452c5.73-8.695 14.724-10.548 21.348-10.548h.229c8.249.053 14.474 2.452 18.503 7.129 2.932 3.405 4.893 8.111 5.864 14.05a115.417 115.417 0 0 0-24.478-2.721c-28.148 0-46.228 15.27-46.228 38.308.113 22.74 20.178 37.654 43.132 37.654 17.058 0 33.272-8.347 42.182-23.14 6.3-10.458 9.111-23.726 8.476-39.584a61.033 61.033 0 0 1 17.374 13.56l11.692-13.373C161.87 79.498 152.652 72.818 141.537 88.988zm-49.891 59.531c-14.013 0-22.891-7.062-23.003-18.291-.084-8.09 5.755-18.283 30.432-18.283a98.167 98.167 0 0 1 22.102 2.557c-2.59 23.18-16.478 34.017-29.531 34.017z" fill="currentColor"/></svg>